<?xml version="1.0" encoding="utf-8"?>
<!-- Generator: Adobe Illustrator 23.0.0, SVG Export Plug-In . SVG Version: 6.00 Build 0)  -->
<svg version="1.1" id="Layer_1" xmlns="http://www.w3.org/2000/svg" xmlns:xlink="http://www.w3.org/1999/xlink" x="0px" y="0px"
	 viewBox="0 0 1280 1024" style="enable-background:new 0 0 1280 1024;" xml:space="preserve">
<style type="text/css">
	.st0{fill:url(#SVGID_1_);}
	.st1{fill:#FFFFFF;stroke:#000000;stroke-width:7;stroke-miterlimit:10;}
	.st2{display:none;fill:#FFFFFF;stroke:#FFFFFF;stroke-width:14;stroke-miterlimit:10;}
	.st3{display:none;fill:none;stroke:#FFFFFF;stroke-width:7;stroke-miterlimit:10;}
	.st4{fill:#FFFFFF;}
	.st5{fill:#FFFFFF;stroke:#FFFFFF;stroke-miterlimit:10;}
	.st6{display:none;}
	.st7{display:inline;}
	.st8{fill:url(#SVGID_2_);}
	.st9{fill:none;stroke:#FFFFFF;stroke-miterlimit:10;}
	.st10{fill:none;stroke:#FFFFFF;stroke-width:10;stroke-miterlimit:10;}
</style>
<linearGradient id="SVGID_1_" gradientUnits="userSpaceOnUse" x1="328" y1="541.0203" x2="1006.33" y2="541.0203" gradientTransform="matrix(1 0 0 -1 0 1024)">
	<stop  offset="0.3245" style="stop-color:#0BAB64"/>
	<stop  offset="0.3429" style="stop-color:#0DAB65"/>
	<stop  offset="0.7618" style="stop-color:#2EB484"/>
	<stop  offset="0.9899" style="stop-color:#3BB78F"/>
</linearGradient>
<polyline class="st0" points="328,171.6 328,143.8 1006.3,143.8 1006.3,822.1 328,822.1 328,171.6 "/>
<path class="st1" d="M867.8,314.5"/>
<path class="st2" d="M779.7,248.1c19.2,9,37.1,20.1,53.4,33.2"/>
<line class="st3" x1="650.5" y1="499.7" x2="650.5" y2="486.3"/>
<line class="st3" x1="596.3" y1="423" x2="596.3" y2="549.7"/>
<line class="st3" x1="608" y1="449.9" x2="608" y2="533.3"/>
<line class="st3" x1="621.2" y1="468.3" x2="621.2" y2="517.7"/>
<line class="st3" x1="635.8" y1="481.7" x2="635.8" y2="511.7"/>
<g>
	
		<image style="overflow:visible;enable-background:new    ;" width="758" height="110" xlink:href="D8A3F3E5.png"  transform="matrix(1 0 0 1 288 793)">
	</image>
</g>
<image style="display:none;overflow:visible;enable-background:new    ;" width="926" height="528" xlink:href="D8A3F3E7.png"  transform="matrix(1 0 0 1 377.2481 478.8928)">
</image>
<path class="st4" d="M637.1,482.5l-1.7,52.8c0,0,0.1,29.9,1.5,30.7c1.3,0.8,0.2,2.2,3.5,2.8s2.8-7.1,2.8-7.1s1.8-35,1.2-37.6
	s-1.2-41.6-1.2-41.6s-1.5-2.7-6.1-1"/>
<path class="st5" d="M623.4,457.6l-3.3,86.1c0,0-0.2,48.8,1.7,50.1c1.9,1.3,0.3,3.5,5.1,4.6c4.8,1,4.3-11.5,4.3-11.5
	s3.3-57.1,2.3-61.3s-1.2-67.9-1.2-67.9s-2.2-4.5-9.1-1.7"/>
<path class="st4" d="M607.8,433l-3,116.7c0,0-0.1,66.2,1.8,68c1.9,1.8,0.3,4.8,5.2,6.2c4.8,1.4,4.3-15.6,4.3-15.6s3.1-77.4,2.2-83.1
	s-1.3-92-1.3-92s-2.2-6.1-9.1-2.3"/>
<path class="st4" d="M588.6,420.1l-4.4,132.7c0,0-0.3,75.3,2.3,77.3c2.6,2,0.4,5.5,7,7.1c6.6,1.6,5.9-17.7,5.9-17.7
	s4.4-88.1,3.1-94.5c-1.3-6.5-1.6-104.6-1.6-104.6s-3-6.9-12.3-2.6"/>
<path class="st4" d="M568,394.1l-4.3,162.7c0,0-0.2,92.2,2.4,94.7c2.6,2.5,0.4,6.7,7,8.7c6.6,2,5.9-21.7,5.9-21.7s4.3-107.9,3-115.8
	s-1.7-128.2-1.7-128.2s-3-8.5-12.3-3.2"/>
<g class="st6">
	
		<image style="display:inline;overflow:visible;opacity:0.75;enable-background:new    ;" width="773" height="146" xlink:href="D8A3F3E2.png"  transform="matrix(0.9932 0 0 0.9932 282.1389 876.9266)">
	</image>
	<g class="st7">
		
			<linearGradient id="SVGID_2_" gradientUnits="userSpaceOnUse" x1="302.37" y1="85.715" x2="1031.97" y2="85.715" gradientTransform="matrix(1 0 0 -1 0 1024)">
			<stop  offset="0.3245" style="stop-color:#0BAB64"/>
			<stop  offset="0.3429" style="stop-color:#0DAB65"/>
			<stop  offset="0.7618" style="stop-color:#2EB484"/>
			<stop  offset="0.9899" style="stop-color:#3BB78F"/>
		</linearGradient>
		<path class="st8" d="M411,983.5c-7.7,2.1-22.8,5.5-40.6,5.5c-20,0-36.5-3.8-49.5-13.1c-11.4-8.3-18.5-21.5-18.5-37
			c0.2-29.6,27.3-51.3,71.7-51.3c15.3,0,27.3,2.5,33,4.6l-4.1,10.5c-7.1-2.4-15.9-4.3-29.3-4.3c-32.2,0-53.2,15-53.2,39.9
			c0,25.2,20.2,40.1,51.1,40.1c11.2,0,18.9-1.2,22.8-2.7v-29.6h-26.9v-10.3H411V983.5z M454.2,888.6v58.8
			c0,22.3,13.2,31.7,30.8,31.7c19.6,0,32.2-9.7,32.2-31.7v-58.8h17.3v57.9c0,30.5-21.4,43-50.1,43c-27.1,0-47.5-11.6-47.5-42.4
			v-58.5L454.2,888.6L454.2,888.6z M561.8,972.3c7.7,3.5,18.8,6.5,30.6,6.5c17.5,0,27.7-6.9,27.7-16.9c0-9.3-7.1-14.6-24.9-19.7
			c-21.6-5.8-35-14.1-35-28.1c0-15.5,17.1-27,42.8-27c13.5,0,23.4,2.4,29.3,4.9l-4.7,10.5c-4.3-1.8-13.2-4.7-25.1-4.7
			c-18.1,0-24.9,8.1-24.9,14.9c0,9.3,8,13.8,26.3,19.2c22.4,6.5,33.8,14.6,33.8,29.2c0,15.3-15.1,28.6-46.3,28.6
			c-12.8,0-26.7-2.8-33.8-6.3L561.8,972.3z M686.1,899.5h-40.3v-10.9h98v10.9h-40.5v88.4h-17.3V899.5z M775.7,888.6v58.8
			c0,22.3,13.2,31.7,30.8,31.7c19.6,0,32.2-9.7,32.2-31.7v-58.8H856v57.9c0,30.5-21.4,43-50.1,43c-27.1,0-47.5-11.6-47.5-42.4v-58.5
			L775.7,888.6L775.7,888.6z M885.7,987.9v-99.3h18.7l42.4,50.2c9.8,11.6,17.5,22.1,23.8,32.3l0.4-0.2c-1.6-13.3-2-25.3-2-40.8
			v-41.5H985v99.3h-17.3l-42-50.4c-9.2-11-18.1-22.4-24.8-33.2l-0.6,0.2c1,12.5,1.4,24.5,1.4,41v42.4H885.7z M1032,888.6v99.3h-17.1
			v-99.3H1032z"/>
	</g>
</g>
<path class="st9" d="M637.4,455.1"/>
<path class="st10" d="M799.5,231.1c-38.1-17.9-80.6-28-125.5-28C511.1,203.1,379,335.2,379,498.1S511.1,793,674,793
	s294.9-132.1,294.9-294.9c0-47.5-11.2-92.3-31.1-132.1c0,0-25.7-51.5-47.9-51.5L641.8,526.1"/>
</svg>
