<?xml version="1.0" encoding="utf-8"?>
<!-- Generator: Adobe Illustrator 23.0.0, SVG Export Plug-In . SVG Version: 6.00 Build 0)  -->
<svg version="1.1" id="Layer_1" xmlns="http://www.w3.org/2000/svg" xmlns:xlink="http://www.w3.org/1999/xlink" x="0px" y="0px"
	 viewBox="0 0 1280 1024" style="enable-background:new 0 0 1280 1024;" xml:space="preserve">
<style type="text/css">
	.st0{fill:#231F20;stroke:#231F20;stroke-miterlimit:10;}
	.st1{fill:url(#SVGID_1_);}
	.st2{fill:none;stroke:url(#SVGID_2_);stroke-width:14;stroke-miterlimit:10;}
	.st3{fill:#FFFFFF;stroke:#000000;stroke-width:7;stroke-miterlimit:10;}
	.st4{display:none;fill:#FFFFFF;stroke:#FFFFFF;stroke-width:14;stroke-miterlimit:10;}
	.st5{display:none;fill:none;stroke:#FFFFFF;stroke-width:7;stroke-miterlimit:10;}
	.st6{display:none;}
	.st7{display:inline;}
	.st8{fill:url(#SVGID_3_);}
	.st9{fill:url(#SVGID_4_);}
	.st10{fill:url(#SVGID_5_);}
	.st11{fill:url(#SVGID_6_);}
	.st12{fill:url(#SVGID_7_);}
	.st13{fill:url(#SVGID_8_);}
	.st14{fill:url(#SVGID_9_);}
	.st15{fill:url(#SVGID_10_);}
</style>
<polyline class="st0" points="328,178.1 328,150.3 1006.3,150.3 1006.3,828.7 328,828.7 328,178.1 "/>
<linearGradient id="SVGID_1_" gradientUnits="userSpaceOnUse" x1="631.29" y1="418.6459" x2="894.6133" y2="418.6459">
	<stop  offset="0.3245" style="stop-color:#0BAB64"/>
	<stop  offset="0.3429" style="stop-color:#0DAB65"/>
	<stop  offset="0.7618" style="stop-color:#2EB484"/>
	<stop  offset="0.9899" style="stop-color:#3BB78F"/>
</linearGradient>
<polyline class="st1" points="872.5,329.6 631.3,528.7 872.5,308.6 894.6,358 "/>
<linearGradient id="SVGID_2_" gradientUnits="userSpaceOnUse" x1="393.92" y1="489.5" x2="940.42" y2="489.5">
	<stop  offset="0.3245" style="stop-color:#0BAB64"/>
	<stop  offset="0.3429" style="stop-color:#0DAB65"/>
	<stop  offset="0.7618" style="stop-color:#2EB484"/>
	<stop  offset="0.9899" style="stop-color:#3BB78F"/>
</linearGradient>
<path class="st2" d="M867.8,314.5c40.9,46.8,65.6,108,65.6,175c0,147-119.2,266.3-266.3,266.3S400.9,636.5,400.9,489.5
	s119.2-266.3,266.3-266.3c40.2,0,78.3,8.9,112.5,24.9"/>
<path class="st3" d="M867.8,314.5"/>
<path class="st4" d="M779.7,248.1c19.2,9,37.1,20.1,53.4,33.2"/>
<line class="st5" x1="650.5" y1="499.7" x2="650.5" y2="486.3"/>
<line class="st5" x1="596.3" y1="423" x2="596.3" y2="549.7"/>
<line class="st5" x1="608" y1="449.9" x2="608" y2="533.3"/>
<line class="st5" x1="621.2" y1="468.3" x2="621.2" y2="517.7"/>
<line class="st5" x1="635.8" y1="481.7" x2="635.8" y2="511.7"/>
<g class="st6">
	<g class="st7">
		<linearGradient id="SVGID_3_" gradientUnits="userSpaceOnUse" x1="861.5639" y1="310.8331" x2="873.9183" y2="310.8331">
			<stop  offset="0.3245" style="stop-color:#0BAB64"/>
			<stop  offset="0.3429" style="stop-color:#0DAB65"/>
			<stop  offset="0.7618" style="stop-color:#2EB484"/>
			<stop  offset="0.9899" style="stop-color:#3BB78F"/>
		</linearGradient>
		<path class="st8" d="M872.9,313c-0.4-3.1-1.6-5.7-4.1-7.8c-0.8-0.6-2.3-0.6-2.5,0.7c-0.5,4.1,1.7,7.9,5.8,8.9
			c1.6,0.4,2.3-1.4,1.5-2.5c-2-2.5-4-5-6-7.6c-0.7-0.9-2.3-0.4-2.5,0.7c-0.9,4.6,0.3,9,3.5,12.5c1.2,1.3,3-0.4,2.4-1.8
			c-1.7-3.5-3.5-6.9-5.7-10.1c-0.9-1.3-2.6-0.7-2.8,0.8c-0.4,3.3,0.8,6.3,3.1,8.7c0.9,0.9,2.7,0.3,2.6-1.1
			c-0.3-4.1-1.4-7.8-3.5-11.3c-0.8-1.4-2.7-0.7-2.8,0.8c-0.5,5,0,9.9,1.5,14.7c0.6,1.8,3.5,1,2.9-0.8c-1.4-4.5-1.9-9.1-1.4-13.9
			c-0.9,0.3-1.9,0.5-2.8,0.8c1.8,3,2.9,6.2,3.1,9.8c0.8-0.4,1.7-0.7,2.6-1.1c-1.8-1.9-2.5-4-2.2-6.6c-0.9,0.3-1.9,0.5-2.8,0.8
			c2.2,3.2,4.1,6.6,5.7,10.1c0.8-0.6,1.6-1.2,2.4-1.8c-2.4-2.6-3.4-6-2.7-9.5c-0.8,0.2-1.7,0.4-2.5,0.7c2,2.5,4,5,6,7.6
			c0.5-0.8,1-1.7,1.5-2.5c-2.4-0.6-4.1-2.7-3.7-5.2c-0.8,0.2-1.7,0.4-2.5,0.7c1.8,1.5,2.9,3.3,3.2,5.6
			C870.1,314.9,873.1,314.9,872.9,313L872.9,313z"/>
	</g>
</g>
<g class="st6">
	
		<image style="display:inline;overflow:visible;enable-background:new    ;" width="758" height="110" xlink:href="109A17C4.png"  transform="matrix(1 0 0 0.7143 288.17 842.9667)">
	</image>
</g>
<image style="display:none;overflow:visible;enable-background:new    ;" width="926" height="528" xlink:href="109A17C5.png"  transform="matrix(1 0 0 1 377.2481 478.8928)">
</image>
<linearGradient id="SVGID_4_" gradientUnits="userSpaceOnUse" x1="591.82" y1="489.5069" x2="599.1258" y2="489.5069">
	<stop  offset="0.3245" style="stop-color:#0BAB64"/>
	<stop  offset="0.3429" style="stop-color:#0DAB65"/>
	<stop  offset="0.7618" style="stop-color:#2EB484"/>
	<stop  offset="0.9899" style="stop-color:#3BB78F"/>
</linearGradient>
<path class="st9" d="M593,308.5L591.8,534c0,0,0.2,127.8,1.2,131.2s0.2,9.3,2.8,11.8s2.3-30.3,2.3-30.3s1.4-149.7,0.9-160.6
	c-0.5-10.9-1-177.6-1-177.6s-1.2-11.6-4.9-4"/>
<linearGradient id="SVGID_5_" gradientUnits="userSpaceOnUse" x1="604.4092" y1="489.5025" x2="611.2" y2="489.5025">
	<stop  offset="0.3245" style="stop-color:#0BAB64"/>
	<stop  offset="0.3429" style="stop-color:#0DAB65"/>
	<stop  offset="0.7618" style="stop-color:#2EB484"/>
	<stop  offset="0.9899" style="stop-color:#3BB78F"/>
</linearGradient>
<path class="st10" d="M607.3,351.1l-2.6,172.4c0,0-0.8,97.7,0,100.3c0.8,2.6,0.1,7.1,2.1,9c2,2,2-23.1,2-23.1s2.2-114.4,1.8-122.8
	c-0.3-8.4,0.5-135.8,0.5-135.8s-0.9-8.9-3.8-3.1"/>
<linearGradient id="SVGID_6_" gradientUnits="userSpaceOnUse" x1="579.139" y1="482.6173" x2="584.9016" y2="482.6173">
	<stop  offset="0.3245" style="stop-color:#0BAB64"/>
	<stop  offset="0.3429" style="stop-color:#0DAB65"/>
	<stop  offset="0.7618" style="stop-color:#2EB484"/>
	<stop  offset="0.9899" style="stop-color:#3BB78F"/>
</linearGradient>
<path class="st11" d="M580.5,270.3l-1.3,264.5c0,0-0.1,149.9,0.8,153.9s0.1,10.8,2.2,13.8s1.8-35.5,1.8-35.5s1.3-175.6,0.9-188.4
	s-0.5-208.3-0.5-208.3s-0.9-13.6-3.8-4.7"/>
<linearGradient id="SVGID_7_" gradientUnits="userSpaceOnUse" x1="617.81" y1="502.2619" x2="625.2319" y2="502.2619">
	<stop  offset="0.3245" style="stop-color:#0BAB64"/>
	<stop  offset="0.3429" style="stop-color:#0DAB65"/>
	<stop  offset="0.7618" style="stop-color:#2EB484"/>
	<stop  offset="0.9899" style="stop-color:#3BB78F"/>
</linearGradient>
<path class="st12" d="M618.5,406.6l-0.6,119.2c0,0,0.5,67.6,1.6,69.3s0.2,4.9,2.9,6.2s2.3-16,2.3-16s1-79.1,0.5-84.9
	s-1.6-93.9-1.6-93.9s-1.3-6.1-5.1-2.1"/>
<linearGradient id="SVGID_8_" gradientUnits="userSpaceOnUse" x1="631.29" y1="510.8467" x2="638.5598" y2="510.8467">
	<stop  offset="0.3245" style="stop-color:#0BAB64"/>
	<stop  offset="0.3429" style="stop-color:#0DAB65"/>
	<stop  offset="0.7618" style="stop-color:#2EB484"/>
	<stop  offset="0.9899" style="stop-color:#3BB78F"/>
</linearGradient>
<path class="st13" d="M632.5,455.1l-1.2,69.5c0,0,0.2,39.4,1.2,40.4s0.2,2.8,2.8,3.6s2.3-9.3,2.3-9.3s1.4-46.1,0.9-49.5
	c-0.5-3.4-1-54.7-1-54.7s-1.2-3.6-4.9-1.2"/>
<g class="st6">
	<g class="st7">
		<linearGradient id="SVGID_9_" gradientUnits="userSpaceOnUse" x1="856.2487" y1="315.8084" x2="872.7609" y2="315.8084">
			<stop  offset="0.3245" style="stop-color:#0BAB64"/>
			<stop  offset="0.3429" style="stop-color:#0DAB65"/>
			<stop  offset="0.7618" style="stop-color:#2EB484"/>
			<stop  offset="0.9899" style="stop-color:#3BB78F"/>
		</linearGradient>
		<path class="st14" d="M872.1,320.2c-4.7-3.3-9.2-6.8-13.3-10.8c-1.1-1.1-2.8,0-2.5,1.5c0.6,3.2,2.9,5.5,6.1,6.3
			c1.4,0.3,2.2-1,1.7-2.2c-0.7-1.6-1.5-3.3-2.2-4.9c-0.7-1.6-3.1-0.4-2.7,1.2c0.6,2.4,2,4.2,4.1,5.5c1.3,0.7,2.9-0.8,2-2
			c-1.1-1.8-2.3-3.5-3.4-5.3c-1-1.6-3.6-0.1-2.6,1.5c1.1,1.8,2.3,3.5,3.4,5.3c0.7-0.7,1.4-1.4,2-2c-1.5-0.9-2.3-2-2.7-3.7
			c-0.9,0.4-1.8,0.8-2.7,1.2c0.7,1.6,1.5,3.3,2.2,4.9c0.6-0.7,1.1-1.5,1.7-2.2c-2.2-0.5-3.5-2-4-4.2c-0.8,0.5-1.7,1-2.5,1.5
			c4.3,4.1,9,7.9,13.9,11.3C872.2,323.9,873.7,321.3,872.1,320.2L872.1,320.2z"/>
	</g>
</g>
<g class="st6">
	<g class="st7">
		<linearGradient id="SVGID_10_" gradientUnits="userSpaceOnUse" x1="853.9084" y1="313.7443" x2="866.825" y2="313.7443">
			<stop  offset="0.3245" style="stop-color:#0BAB64"/>
			<stop  offset="0.3429" style="stop-color:#0DAB65"/>
			<stop  offset="0.7618" style="stop-color:#2EB484"/>
			<stop  offset="0.9899" style="stop-color:#3BB78F"/>
		</linearGradient>
		<path class="st15" d="M866.3,318.1c-3.7-3.1-6.9-6.6-9.6-10.5c-1.1-1.6-3.7-0.1-2.6,1.5c2.8,4.2,6.2,7.9,10,11.1
			C865.7,321.5,867.8,319.3,866.3,318.1L866.3,318.1z"/>
	</g>
</g>
</svg>
